<mxfile host="Electron" modified="2024-03-01T21:11:45.621Z" agent="Mozilla/5.0 (Windows NT 10.0; Win64; x64) AppleWebKit/537.36 (KHTML, like Gecko) draw.io/23.1.5 Chrome/120.0.6099.109 Electron/28.1.0 Safari/537.36" etag="8QW9OUI61Sqnk_vpgCnI" version="23.1.5" type="device">
  <diagram name="Page-1" id="Cm4uGJV9FySPK-NFK117">
    <mxGraphModel dx="896" dy="523" grid="1" gridSize="10" guides="1" tooltips="1" connect="1" arrows="1" fold="1" page="1" pageScale="1" pageWidth="827" pageHeight="1169" math="0" shadow="0">
      <root>
        <mxCell id="0" />
        <mxCell id="1" parent="0" />
        <mxCell id="wUoipL1Z-Gq92LmjgEKH-35" style="edgeStyle=orthogonalEdgeStyle;rounded=0;orthogonalLoop=1;jettySize=auto;html=1;exitX=0.5;exitY=0;exitDx=0;exitDy=0;entryX=0;entryY=0.75;entryDx=0;entryDy=0;endArrow=none;endFill=0;fontStyle=0;fontFamily=Atkinson Hyperlegible;" parent="1" source="wUoipL1Z-Gq92LmjgEKH-16" target="wUoipL1Z-Gq92LmjgEKH-18" edge="1">
          <mxGeometry relative="1" as="geometry">
            <Array as="points">
              <mxPoint x="105" y="50" />
            </Array>
          </mxGeometry>
        </mxCell>
        <mxCell id="wUoipL1Z-Gq92LmjgEKH-16" value="AppRouting&lt;br&gt;Module" style="html=1;whiteSpace=wrap;fontSize=10;fontFamily=Atkinson Hyperlegible;fontStyle=0" parent="1" vertex="1">
          <mxGeometry x="70" y="80" width="70" height="40" as="geometry" />
        </mxCell>
        <mxCell id="wUoipL1Z-Gq92LmjgEKH-36" style="edgeStyle=orthogonalEdgeStyle;rounded=0;orthogonalLoop=1;jettySize=auto;html=1;exitX=1;exitY=0.5;exitDx=0;exitDy=0;entryX=0;entryY=0.5;entryDx=0;entryDy=0;endArrow=diamondThin;endFill=1;strokeWidth=1;endSize=10;fontStyle=0;fontFamily=Atkinson Hyperlegible;" parent="1" source="wUoipL1Z-Gq92LmjgEKH-17" target="wUoipL1Z-Gq92LmjgEKH-18" edge="1">
          <mxGeometry relative="1" as="geometry" />
        </mxCell>
        <mxCell id="wUoipL1Z-Gq92LmjgEKH-17" value="App&lt;br&gt;Component" style="html=1;whiteSpace=wrap;fontSize=10;fontFamily=Atkinson Hyperlegible;fontStyle=0" parent="1" vertex="1">
          <mxGeometry x="20" y="20" width="70" height="40" as="geometry" />
        </mxCell>
        <mxCell id="wUoipL1Z-Gq92LmjgEKH-18" value="App&lt;br&gt;Module" style="html=1;whiteSpace=wrap;fontSize=10;fontFamily=Atkinson Hyperlegible;fontStyle=0" parent="1" vertex="1">
          <mxGeometry x="220" y="20" width="50" height="40" as="geometry" />
        </mxCell>
        <mxCell id="wUoipL1Z-Gq92LmjgEKH-39" style="edgeStyle=orthogonalEdgeStyle;rounded=0;orthogonalLoop=1;jettySize=auto;html=1;entryX=0.25;entryY=1;entryDx=0;entryDy=0;exitX=0.5;exitY=0;exitDx=0;exitDy=0;endArrow=none;endFill=0;fontStyle=0;fontFamily=Atkinson Hyperlegible;" parent="1" source="wUoipL1Z-Gq92LmjgEKH-19" target="wUoipL1Z-Gq92LmjgEKH-18" edge="1">
          <mxGeometry relative="1" as="geometry" />
        </mxCell>
        <mxCell id="wUoipL1Z-Gq92LmjgEKH-19" value="Core&lt;br&gt;Module" style="html=1;whiteSpace=wrap;fontSize=10;fontFamily=Atkinson Hyperlegible;fontStyle=0" parent="1" vertex="1">
          <mxGeometry x="160" y="120" width="50" height="40" as="geometry" />
        </mxCell>
        <mxCell id="wUoipL1Z-Gq92LmjgEKH-38" style="edgeStyle=orthogonalEdgeStyle;rounded=0;orthogonalLoop=1;jettySize=auto;html=1;entryX=0.5;entryY=1;entryDx=0;entryDy=0;endArrow=none;endFill=0;fontStyle=0;fontFamily=Atkinson Hyperlegible;" parent="1" source="wUoipL1Z-Gq92LmjgEKH-20" target="wUoipL1Z-Gq92LmjgEKH-18" edge="1">
          <mxGeometry relative="1" as="geometry" />
        </mxCell>
        <mxCell id="wUoipL1Z-Gq92LmjgEKH-20" value="Views&lt;br&gt;Module" style="html=1;whiteSpace=wrap;fontSize=10;fontFamily=Atkinson Hyperlegible;fontStyle=0" parent="1" vertex="1">
          <mxGeometry x="220" y="120" width="50" height="40" as="geometry" />
        </mxCell>
        <mxCell id="wUoipL1Z-Gq92LmjgEKH-37" style="edgeStyle=orthogonalEdgeStyle;rounded=0;orthogonalLoop=1;jettySize=auto;html=1;entryX=0.75;entryY=1;entryDx=0;entryDy=0;exitX=0.5;exitY=0;exitDx=0;exitDy=0;endArrow=none;endFill=0;fontStyle=0;fontFamily=Atkinson Hyperlegible;" parent="1" source="wUoipL1Z-Gq92LmjgEKH-21" target="wUoipL1Z-Gq92LmjgEKH-18" edge="1">
          <mxGeometry relative="1" as="geometry" />
        </mxCell>
        <mxCell id="wUoipL1Z-Gq92LmjgEKH-21" value="Shared&lt;br&gt;Module" style="html=1;whiteSpace=wrap;fontSize=10;fontFamily=Atkinson Hyperlegible;fontStyle=0" parent="1" vertex="1">
          <mxGeometry x="284" y="120" width="50" height="40" as="geometry" />
        </mxCell>
        <mxCell id="wUoipL1Z-Gq92LmjgEKH-28" value="Header&lt;br&gt;Component" style="html=1;whiteSpace=wrap;fontSize=10;fontFamily=Atkinson Hyperlegible;fontStyle=0" parent="1" vertex="1">
          <mxGeometry x="400" y="20" width="70" height="40" as="geometry" />
        </mxCell>
        <mxCell id="wUoipL1Z-Gq92LmjgEKH-29" value="Footer&lt;br&gt;Component" style="html=1;whiteSpace=wrap;fontSize=10;fontFamily=Atkinson Hyperlegible;fontStyle=0" parent="1" vertex="1">
          <mxGeometry x="400" y="70" width="70" height="40" as="geometry" />
        </mxCell>
        <mxCell id="wUoipL1Z-Gq92LmjgEKH-30" value="Home&lt;br&gt;Module" style="html=1;whiteSpace=wrap;fontSize=10;fontFamily=Atkinson Hyperlegible;fontStyle=0" parent="1" vertex="1">
          <mxGeometry x="400" y="145" width="50" height="40" as="geometry" />
        </mxCell>
        <mxCell id="wUoipL1Z-Gq92LmjgEKH-31" value="Home&lt;br&gt;Page" style="html=1;whiteSpace=wrap;fontSize=10;fontFamily=Atkinson Hyperlegible;fontStyle=0" parent="1" vertex="1">
          <mxGeometry x="510" y="110" width="46" height="40" as="geometry" />
        </mxCell>
        <mxCell id="wUoipL1Z-Gq92LmjgEKH-32" value="HomeHero Component" style="html=1;whiteSpace=wrap;fontSize=10;fontFamily=Atkinson Hyperlegible;fontStyle=0" parent="1" vertex="1">
          <mxGeometry x="510" y="160" width="76" height="40" as="geometry" />
        </mxCell>
        <mxCell id="wUoipL1Z-Gq92LmjgEKH-40" style="edgeStyle=orthogonalEdgeStyle;rounded=0;orthogonalLoop=1;jettySize=auto;html=1;exitX=0;exitY=0.5;exitDx=0;exitDy=0;entryX=1;entryY=0.5;entryDx=0;entryDy=0;endArrow=diamondThin;endFill=1;strokeWidth=1;endSize=10;fontStyle=0;fontFamily=Atkinson Hyperlegible;" parent="1" source="wUoipL1Z-Gq92LmjgEKH-28" target="wUoipL1Z-Gq92LmjgEKH-21" edge="1">
          <mxGeometry relative="1" as="geometry">
            <mxPoint x="100" y="50" as="sourcePoint" />
            <mxPoint x="230" y="50" as="targetPoint" />
          </mxGeometry>
        </mxCell>
        <mxCell id="wUoipL1Z-Gq92LmjgEKH-41" style="edgeStyle=orthogonalEdgeStyle;rounded=0;orthogonalLoop=1;jettySize=auto;html=1;exitX=0;exitY=0.5;exitDx=0;exitDy=0;entryX=1;entryY=0.5;entryDx=0;entryDy=0;endArrow=diamondThin;endFill=1;strokeWidth=1;endSize=10;fontStyle=0;fontFamily=Atkinson Hyperlegible;" parent="1" source="wUoipL1Z-Gq92LmjgEKH-29" target="wUoipL1Z-Gq92LmjgEKH-21" edge="1">
          <mxGeometry relative="1" as="geometry">
            <mxPoint x="410" y="100" as="sourcePoint" />
            <mxPoint x="344" y="150" as="targetPoint" />
          </mxGeometry>
        </mxCell>
        <mxCell id="wUoipL1Z-Gq92LmjgEKH-42" style="edgeStyle=orthogonalEdgeStyle;rounded=0;orthogonalLoop=1;jettySize=auto;html=1;entryX=0.5;entryY=1;entryDx=0;entryDy=0;exitX=0;exitY=0.5;exitDx=0;exitDy=0;endArrow=none;endFill=0;fontStyle=0;fontFamily=Atkinson Hyperlegible;" parent="1" source="wUoipL1Z-Gq92LmjgEKH-30" target="wUoipL1Z-Gq92LmjgEKH-20" edge="1">
          <mxGeometry relative="1" as="geometry">
            <mxPoint x="195" y="130" as="sourcePoint" />
            <mxPoint x="243" y="70" as="targetPoint" />
          </mxGeometry>
        </mxCell>
        <mxCell id="wUoipL1Z-Gq92LmjgEKH-44" style="edgeStyle=orthogonalEdgeStyle;rounded=0;orthogonalLoop=1;jettySize=auto;html=1;exitX=0;exitY=0.5;exitDx=0;exitDy=0;entryX=1;entryY=0.5;entryDx=0;entryDy=0;endArrow=diamondThin;endFill=1;strokeWidth=1;endSize=10;fontStyle=0;fontFamily=Atkinson Hyperlegible;" parent="1" source="wUoipL1Z-Gq92LmjgEKH-31" target="wUoipL1Z-Gq92LmjgEKH-30" edge="1">
          <mxGeometry relative="1" as="geometry">
            <mxPoint x="460" y="85" as="sourcePoint" />
            <mxPoint x="394" y="135" as="targetPoint" />
          </mxGeometry>
        </mxCell>
        <mxCell id="wUoipL1Z-Gq92LmjgEKH-45" style="edgeStyle=orthogonalEdgeStyle;rounded=0;orthogonalLoop=1;jettySize=auto;html=1;exitX=0;exitY=0.5;exitDx=0;exitDy=0;entryX=1;entryY=0.5;entryDx=0;entryDy=0;endArrow=diamondThin;endFill=1;strokeWidth=1;endSize=10;fontStyle=0;fontFamily=Atkinson Hyperlegible;" parent="1" source="wUoipL1Z-Gq92LmjgEKH-32" target="wUoipL1Z-Gq92LmjgEKH-30" edge="1">
          <mxGeometry relative="1" as="geometry">
            <mxPoint x="500" y="135" as="sourcePoint" />
            <mxPoint x="460" y="205" as="targetPoint" />
          </mxGeometry>
        </mxCell>
        <mxCell id="6d59Y6BwuqlqH6WBnOTv-1" value="Values&lt;br&gt;Module" style="html=1;whiteSpace=wrap;fontSize=10;fontFamily=Atkinson Hyperlegible;fontStyle=0" parent="1" vertex="1">
          <mxGeometry x="60" y="235" width="50" height="40" as="geometry" />
        </mxCell>
        <mxCell id="6d59Y6BwuqlqH6WBnOTv-2" value="Sitemap&lt;br&gt;Module" style="html=1;whiteSpace=wrap;fontSize=10;fontFamily=Atkinson Hyperlegible;fontStyle=0" parent="1" vertex="1">
          <mxGeometry x="180" y="235" width="50" height="40" as="geometry" />
        </mxCell>
        <mxCell id="6d59Y6BwuqlqH6WBnOTv-3" value="References&lt;br&gt;Module" style="html=1;whiteSpace=wrap;fontSize=10;fontFamily=Atkinson Hyperlegible;fontStyle=0" parent="1" vertex="1">
          <mxGeometry x="240" y="235" width="70" height="40" as="geometry" />
        </mxCell>
        <mxCell id="6d59Y6BwuqlqH6WBnOTv-4" value="FineArt&lt;br&gt;Module" style="html=1;whiteSpace=wrap;fontSize=10;fontFamily=Atkinson Hyperlegible;fontStyle=0" parent="1" vertex="1">
          <mxGeometry x="410" y="260" width="50" height="40" as="geometry" />
        </mxCell>
        <mxCell id="6d59Y6BwuqlqH6WBnOTv-5" value="ComputerScience&lt;br&gt;Module" style="html=1;whiteSpace=wrap;fontSize=10;fontFamily=Atkinson Hyperlegible;fontStyle=0" parent="1" vertex="1">
          <mxGeometry x="320" y="320" width="100" height="40" as="geometry" />
        </mxCell>
        <mxCell id="6d59Y6BwuqlqH6WBnOTv-6" value="Portfolio&lt;br&gt;Module" style="html=1;whiteSpace=wrap;fontSize=10;fontFamily=Atkinson Hyperlegible;fontStyle=0" parent="1" vertex="1">
          <mxGeometry x="330" y="210" width="50" height="40" as="geometry" />
        </mxCell>
        <mxCell id="6d59Y6BwuqlqH6WBnOTv-7" value="About&lt;br&gt;Module" style="html=1;whiteSpace=wrap;fontSize=10;fontFamily=Atkinson Hyperlegible;fontStyle=0" parent="1" vertex="1">
          <mxGeometry x="120" y="235" width="50" height="40" as="geometry" />
        </mxCell>
        <mxCell id="6d59Y6BwuqlqH6WBnOTv-8" value="Portfolio&lt;br&gt;Page" style="html=1;whiteSpace=wrap;fontSize=10;fontFamily=Atkinson Hyperlegible;fontStyle=0" parent="1" vertex="1">
          <mxGeometry x="410" y="210" width="50" height="40" as="geometry" />
        </mxCell>
        <mxCell id="6d59Y6BwuqlqH6WBnOTv-9" style="edgeStyle=orthogonalEdgeStyle;rounded=0;orthogonalLoop=1;jettySize=auto;html=1;endArrow=none;endFill=0;fontStyle=0;fontFamily=Atkinson Hyperlegible;entryX=0.5;entryY=1;entryDx=0;entryDy=0;exitX=0.5;exitY=0;exitDx=0;exitDy=0;" parent="1" source="6d59Y6BwuqlqH6WBnOTv-6" target="wUoipL1Z-Gq92LmjgEKH-20" edge="1">
          <mxGeometry relative="1" as="geometry">
            <mxPoint x="360" y="190" as="sourcePoint" />
            <mxPoint x="250" y="160" as="targetPoint" />
          </mxGeometry>
        </mxCell>
        <mxCell id="6d59Y6BwuqlqH6WBnOTv-10" style="edgeStyle=orthogonalEdgeStyle;rounded=0;orthogonalLoop=1;jettySize=auto;html=1;endArrow=none;endFill=0;fontStyle=0;fontFamily=Atkinson Hyperlegible;entryX=0.5;entryY=1;entryDx=0;entryDy=0;exitX=0.5;exitY=0;exitDx=0;exitDy=0;" parent="1" source="6d59Y6BwuqlqH6WBnOTv-5" target="6d59Y6BwuqlqH6WBnOTv-6" edge="1">
          <mxGeometry relative="1" as="geometry">
            <mxPoint x="315" y="230" as="sourcePoint" />
            <mxPoint x="255" y="170" as="targetPoint" />
          </mxGeometry>
        </mxCell>
        <mxCell id="6d59Y6BwuqlqH6WBnOTv-12" style="edgeStyle=orthogonalEdgeStyle;rounded=0;orthogonalLoop=1;jettySize=auto;html=1;endArrow=none;endFill=0;fontStyle=0;fontFamily=Atkinson Hyperlegible;entryX=0.5;entryY=1;entryDx=0;entryDy=0;" parent="1" source="6d59Y6BwuqlqH6WBnOTv-4" target="6d59Y6BwuqlqH6WBnOTv-6" edge="1">
          <mxGeometry relative="1" as="geometry">
            <mxPoint x="260" y="310" as="sourcePoint" />
            <mxPoint x="315" y="270" as="targetPoint" />
          </mxGeometry>
        </mxCell>
        <mxCell id="6d59Y6BwuqlqH6WBnOTv-13" style="edgeStyle=orthogonalEdgeStyle;rounded=0;orthogonalLoop=1;jettySize=auto;html=1;endArrow=none;endFill=0;fontStyle=0;fontFamily=Atkinson Hyperlegible;entryX=0.5;entryY=1;entryDx=0;entryDy=0;exitX=0.5;exitY=0;exitDx=0;exitDy=0;" parent="1" source="6d59Y6BwuqlqH6WBnOTv-2" target="wUoipL1Z-Gq92LmjgEKH-20" edge="1">
          <mxGeometry relative="1" as="geometry">
            <mxPoint x="315" y="230" as="sourcePoint" />
            <mxPoint x="255" y="170" as="targetPoint" />
          </mxGeometry>
        </mxCell>
        <mxCell id="6d59Y6BwuqlqH6WBnOTv-14" style="edgeStyle=orthogonalEdgeStyle;rounded=0;orthogonalLoop=1;jettySize=auto;html=1;endArrow=none;endFill=0;fontStyle=0;fontFamily=Atkinson Hyperlegible;entryX=0.5;entryY=1;entryDx=0;entryDy=0;exitX=0.5;exitY=0;exitDx=0;exitDy=0;" parent="1" source="6d59Y6BwuqlqH6WBnOTv-3" target="wUoipL1Z-Gq92LmjgEKH-20" edge="1">
          <mxGeometry relative="1" as="geometry">
            <mxPoint x="175" y="230" as="sourcePoint" />
            <mxPoint x="255" y="170" as="targetPoint" />
          </mxGeometry>
        </mxCell>
        <mxCell id="6d59Y6BwuqlqH6WBnOTv-15" style="edgeStyle=orthogonalEdgeStyle;rounded=0;orthogonalLoop=1;jettySize=auto;html=1;endArrow=none;endFill=0;fontStyle=0;fontFamily=Atkinson Hyperlegible;entryX=0.5;entryY=1;entryDx=0;entryDy=0;exitX=0.5;exitY=0;exitDx=0;exitDy=0;" parent="1" source="6d59Y6BwuqlqH6WBnOTv-1" target="wUoipL1Z-Gq92LmjgEKH-20" edge="1">
          <mxGeometry relative="1" as="geometry">
            <mxPoint x="245" y="230" as="sourcePoint" />
            <mxPoint x="255" y="170" as="targetPoint" />
          </mxGeometry>
        </mxCell>
        <mxCell id="6d59Y6BwuqlqH6WBnOTv-16" style="edgeStyle=orthogonalEdgeStyle;rounded=0;orthogonalLoop=1;jettySize=auto;html=1;endArrow=none;endFill=0;fontStyle=0;fontFamily=Atkinson Hyperlegible;entryX=0.5;entryY=1;entryDx=0;entryDy=0;exitX=0.5;exitY=0;exitDx=0;exitDy=0;" parent="1" source="6d59Y6BwuqlqH6WBnOTv-7" target="wUoipL1Z-Gq92LmjgEKH-20" edge="1">
          <mxGeometry relative="1" as="geometry">
            <mxPoint x="130" y="230" as="sourcePoint" />
            <mxPoint x="255" y="170" as="targetPoint" />
          </mxGeometry>
        </mxCell>
        <mxCell id="6d59Y6BwuqlqH6WBnOTv-17" style="edgeStyle=orthogonalEdgeStyle;rounded=0;orthogonalLoop=1;jettySize=auto;html=1;exitX=0;exitY=0.5;exitDx=0;exitDy=0;entryX=1;entryY=0.5;entryDx=0;entryDy=0;endArrow=diamondThin;endFill=1;strokeWidth=1;endSize=10;fontStyle=0;fontFamily=Atkinson Hyperlegible;" parent="1" source="6d59Y6BwuqlqH6WBnOTv-8" target="6d59Y6BwuqlqH6WBnOTv-6" edge="1">
          <mxGeometry relative="1" as="geometry">
            <mxPoint x="410" y="100" as="sourcePoint" />
            <mxPoint x="344" y="150" as="targetPoint" />
          </mxGeometry>
        </mxCell>
        <mxCell id="Yiq_71vvtiSowzrnK-Ts-1" value="Computer Science&lt;br&gt;Page" style="html=1;whiteSpace=wrap;fontSize=10;fontFamily=Atkinson Hyperlegible;fontStyle=0" vertex="1" parent="1">
          <mxGeometry x="483" y="320" width="100" height="40" as="geometry" />
        </mxCell>
        <mxCell id="Yiq_71vvtiSowzrnK-Ts-2" value="Fine Art&lt;br&gt;Page" style="html=1;whiteSpace=wrap;fontSize=10;fontFamily=Atkinson Hyperlegible;fontStyle=0" vertex="1" parent="1">
          <mxGeometry x="506" y="260" width="50" height="40" as="geometry" />
        </mxCell>
        <mxCell id="Yiq_71vvtiSowzrnK-Ts-3" style="edgeStyle=orthogonalEdgeStyle;rounded=0;orthogonalLoop=1;jettySize=auto;html=1;exitX=0;exitY=0.5;exitDx=0;exitDy=0;entryX=1;entryY=0.5;entryDx=0;entryDy=0;endArrow=diamondThin;endFill=1;strokeWidth=1;endSize=10;fontStyle=0;fontFamily=Atkinson Hyperlegible;" edge="1" parent="1" source="Yiq_71vvtiSowzrnK-Ts-2" target="6d59Y6BwuqlqH6WBnOTv-4">
          <mxGeometry relative="1" as="geometry">
            <mxPoint x="520" y="190" as="sourcePoint" />
            <mxPoint x="460" y="175" as="targetPoint" />
          </mxGeometry>
        </mxCell>
        <mxCell id="Yiq_71vvtiSowzrnK-Ts-4" style="edgeStyle=orthogonalEdgeStyle;rounded=0;orthogonalLoop=1;jettySize=auto;html=1;exitX=0;exitY=0.5;exitDx=0;exitDy=0;entryX=1;entryY=0.5;entryDx=0;entryDy=0;endArrow=diamondThin;endFill=1;strokeWidth=1;endSize=10;fontStyle=0;fontFamily=Atkinson Hyperlegible;" edge="1" parent="1" source="Yiq_71vvtiSowzrnK-Ts-1" target="6d59Y6BwuqlqH6WBnOTv-5">
          <mxGeometry relative="1" as="geometry">
            <mxPoint x="516" y="290" as="sourcePoint" />
            <mxPoint x="470" y="290" as="targetPoint" />
          </mxGeometry>
        </mxCell>
        <mxCell id="Yiq_71vvtiSowzrnK-Ts-5" value="Values&lt;br&gt;Page" style="html=1;whiteSpace=wrap;fontSize=10;fontFamily=Atkinson Hyperlegible;fontStyle=0" vertex="1" parent="1">
          <mxGeometry x="60" y="320" width="50" height="40" as="geometry" />
        </mxCell>
        <mxCell id="Yiq_71vvtiSowzrnK-Ts-6" value="About&lt;br&gt;Page" style="html=1;whiteSpace=wrap;fontSize=10;fontFamily=Atkinson Hyperlegible;fontStyle=0" vertex="1" parent="1">
          <mxGeometry x="120" y="320" width="50" height="40" as="geometry" />
        </mxCell>
        <mxCell id="Yiq_71vvtiSowzrnK-Ts-7" value="Sitemap&lt;br&gt;Page" style="html=1;whiteSpace=wrap;fontSize=10;fontFamily=Atkinson Hyperlegible;fontStyle=0" vertex="1" parent="1">
          <mxGeometry x="180" y="320" width="50" height="40" as="geometry" />
        </mxCell>
        <mxCell id="Yiq_71vvtiSowzrnK-Ts-8" value="References&lt;br&gt;Page" style="html=1;whiteSpace=wrap;fontSize=10;fontFamily=Atkinson Hyperlegible;fontStyle=0" vertex="1" parent="1">
          <mxGeometry x="245" y="320" width="60" height="40" as="geometry" />
        </mxCell>
        <mxCell id="Yiq_71vvtiSowzrnK-Ts-9" style="edgeStyle=orthogonalEdgeStyle;rounded=0;orthogonalLoop=1;jettySize=auto;html=1;exitX=0.5;exitY=0;exitDx=0;exitDy=0;entryX=0.5;entryY=1;entryDx=0;entryDy=0;endArrow=diamondThin;endFill=1;strokeWidth=1;endSize=10;fontStyle=0;fontFamily=Atkinson Hyperlegible;" edge="1" parent="1" source="Yiq_71vvtiSowzrnK-Ts-8" target="6d59Y6BwuqlqH6WBnOTv-3">
          <mxGeometry relative="1" as="geometry">
            <mxPoint x="493" y="350" as="sourcePoint" />
            <mxPoint x="430" y="350" as="targetPoint" />
          </mxGeometry>
        </mxCell>
        <mxCell id="Yiq_71vvtiSowzrnK-Ts-10" style="edgeStyle=orthogonalEdgeStyle;rounded=0;orthogonalLoop=1;jettySize=auto;html=1;exitX=0.5;exitY=0;exitDx=0;exitDy=0;entryX=0.5;entryY=1;entryDx=0;entryDy=0;endArrow=diamondThin;endFill=1;strokeWidth=1;endSize=10;fontStyle=0;fontFamily=Atkinson Hyperlegible;" edge="1" parent="1" source="Yiq_71vvtiSowzrnK-Ts-7" target="6d59Y6BwuqlqH6WBnOTv-2">
          <mxGeometry relative="1" as="geometry">
            <mxPoint x="285" y="310" as="sourcePoint" />
            <mxPoint x="285" y="285" as="targetPoint" />
          </mxGeometry>
        </mxCell>
        <mxCell id="Yiq_71vvtiSowzrnK-Ts-11" style="edgeStyle=orthogonalEdgeStyle;rounded=0;orthogonalLoop=1;jettySize=auto;html=1;exitX=0.5;exitY=0;exitDx=0;exitDy=0;entryX=0.5;entryY=1;entryDx=0;entryDy=0;endArrow=diamondThin;endFill=1;strokeWidth=1;endSize=10;fontStyle=0;fontFamily=Atkinson Hyperlegible;" edge="1" parent="1" source="Yiq_71vvtiSowzrnK-Ts-6" target="6d59Y6BwuqlqH6WBnOTv-7">
          <mxGeometry relative="1" as="geometry">
            <mxPoint x="215" y="310" as="sourcePoint" />
            <mxPoint x="215" y="285" as="targetPoint" />
          </mxGeometry>
        </mxCell>
        <mxCell id="Yiq_71vvtiSowzrnK-Ts-13" style="edgeStyle=orthogonalEdgeStyle;rounded=0;orthogonalLoop=1;jettySize=auto;html=1;exitX=0.5;exitY=0;exitDx=0;exitDy=0;entryX=0.5;entryY=1;entryDx=0;entryDy=0;endArrow=diamondThin;endFill=1;strokeWidth=1;endSize=10;fontStyle=0;fontFamily=Atkinson Hyperlegible;" edge="1" parent="1" source="Yiq_71vvtiSowzrnK-Ts-5" target="6d59Y6BwuqlqH6WBnOTv-1">
          <mxGeometry relative="1" as="geometry">
            <mxPoint x="155" y="330" as="sourcePoint" />
            <mxPoint x="155" y="285" as="targetPoint" />
          </mxGeometry>
        </mxCell>
      </root>
    </mxGraphModel>
  </diagram>
</mxfile>
